<svg width="30" height="30" viewBox="0 0 30 30" fill="none" xmlns="http://www.w3.org/2000/svg">
<path d="M11.9242 2.79709C12.0806 1.01282 14.2147 -0.366885 16.5148 0.0872924L17.1428 0.213241C18.2568 0.434604 19.2457 1.08343 19.5777 2.05476C20.107 3.61193 20.8601 6.84652 19.7269 10.6612C20.0812 10.6224 20.4366 10.5899 20.7927 10.5639C22.5082 10.4399 24.8084 10.4265 26.8462 10.9646C28.0926 11.2948 29.2378 12.2642 29.7335 13.3939C30.1762 14.4091 30.1184 15.6114 29.1704 16.701C29.31 16.9281 29.4183 17.1628 29.5025 17.3937C29.6877 17.909 29.7744 18.4757 29.7744 19.0272C29.7744 19.5787 29.6877 20.1455 29.5025 20.6607C29.4086 20.9184 29.2859 21.1817 29.1175 21.4317C29.5241 22.1702 29.375 22.9946 29.1103 23.6224C28.8393 24.2424 28.4428 24.8231 27.9362 25.3418C28.0661 25.6319 28.119 25.9372 28.119 26.2292C28.119 26.8112 27.9049 27.4219 27.5103 27.9696C26.7067 29.0878 25.1115 30 22.8571 30H14.4361C12.9804 30 11.8616 29.8454 10.9088 29.584C10.0896 29.3467 9.30669 29.0369 8.57502 28.6604L8.45953 28.6031C7.2469 28.0173 6.05592 27.441 3.4839 27.2253C1.6409 27.0688 0 25.8895 0 24.2751V16.6419C0 15.0198 1.64812 13.9092 3.26495 13.5599C5.30766 13.1172 7.05201 12.0581 8.39456 10.8692C9.74193 9.67272 10.5937 8.42659 10.8944 7.74151C11.3732 6.64423 11.7509 4.80463 11.9242 2.799V2.79709Z" fill="white"/>
</svg>
