<svg width="30" height="30" viewBox="0 0 30 30" fill="none" xmlns="http://www.w3.org/2000/svg">
<path d="M11.923 27.2021C12.0794 28.9884 14.2133 30.3682 16.5132 29.9121L17.1411 29.788C17.7171 29.6813 18.2467 29.4542 18.6748 29.1304C19.1029 28.8066 19.414 28.3978 19.5758 27.9464C20.105 26.3892 20.858 23.1525 19.7249 19.3396C20.0521 19.3778 20.4106 19.4102 20.7907 19.4369C22.506 19.561 24.8059 19.5724 26.8436 19.0342C28.0898 18.7041 29.2349 17.7365 29.7305 16.6068C29.9786 16.0599 30.057 15.4736 29.959 14.8976C29.861 14.3216 29.5896 13.7728 29.1676 13.2976C29.3071 13.0724 29.4154 12.8358 29.4996 12.6068C29.6848 12.0915 29.7714 11.5228 29.7714 10.9732C29.7714 10.4198 29.6848 9.85491 29.4996 9.33773C29.4051 9.0715 29.2761 8.81376 29.1146 8.56866C29.5212 7.83011 29.3721 7.00378 29.1074 6.37592C28.8363 5.75662 28.4398 5.1765 27.9334 4.65837C28.0633 4.36639 28.1162 4.06105 28.1162 3.77097C28.1059 3.1589 27.8963 2.55934 27.5076 2.03052C26.7041 0.9103 25.109 0 22.8548 0H14.4346C12.9791 0 11.8604 0.152671 10.9078 0.41412C10.0885 0.652067 9.30569 0.962552 8.57417 1.33969L8.45869 1.39503C7.24618 1.98281 6.05532 2.55915 3.48356 2.77479C1.64074 2.92937 0 4.11066 0 5.72325V13.3568C0 14.9808 1.64795 16.0915 3.26463 16.4408C5.30713 16.8835 7.05131 17.9427 8.39373 19.1316C9.74096 20.3262 10.5926 21.5743 10.8933 22.2575C11.3721 23.3548 11.7498 25.1964 11.923 27.2021Z" fill="white"/>
</svg>
